<svg height="480pt" viewBox="0 0 480 480.02505" width="480pt" xmlns="http://www.w3.org/2000/svg"><path d="m40.011719 88.023438h288v352h-288zm0 0" fill="#bddbff"/><path d="m328.011719 88.023438v96h32v-112c-.027344-8.824219-7.171875-15.972657-16-16h-80v32zm0 0" fill="#00479b"/><path d="m24.011719 472.023438h256c-8.835938 0-16-7.160157-16-16v-16h-224v-352h64v-32h-80c-8.824219.027343-15.972657 7.175781-16 16v384c0 8.839843 7.164062 16 16 16zm0 0" fill="#00479b"/><path d="m264.011719 48.023438v48c0 4.417968-3.582031 8-8 8h-144c-4.417969 0-8-3.582032-8-8v-48c0-4.417969 3.582031-8 8-8h27.441406c6.613281-.148438 12.402344-4.488282 14.398437-10.796876 4.582032-12.71875 16.644532-21.195312 30.160157-21.195312s25.582031 8.476562 30.160156 21.195312c1.996094 6.308594 7.785156 10.648438 14.402344 10.796876h27.4375c4.417969 0 8 3.582031 8 8zm0 0" fill="#ffcd00"/><path d="m200.011719 48.023438c0 8.839843-7.164063 16-16 16-8.835938 0-16-7.160157-16-16 0-8.835938 7.164062-16 16-16 8.835937 0 16 7.164062 16 16zm0 0" fill="#ed1c24"/><path d="m72.011719 152.023438v64h64v-64zm0 0" fill="#7ed63e"/><path d="m72.011719 248.023438v64h64v-64zm0 0" fill="#7ed63e"/><path d="m280.011719 184.023438h176c8.835937 0 16 7.164062 16 16v256c0 8.839843-7.164063 16-16 16h-176c-8.835938 0-16-7.160157-16-16v-256c0-8.835938 7.164062-16 16-16zm0 0" fill="#ed1c24"/><path d="m296.011719 216.023438h144v48h-144zm0 0" fill="#7ed63e"/><g fill="#ffcd00"><path d="m296.011719 296.023438h32v32h-32zm0 0"/><path d="m352.011719 296.023438h32v32h-32zm0 0"/><path d="m408.011719 296.023438h32v32h-32zm0 0"/><path d="m296.011719 352.023438h32v32h-32zm0 0"/><path d="m352.011719 352.023438h32v32h-32zm0 0"/><path d="m408.011719 352.023438h32v32h-32zm0 0"/><path d="m352.011719 408.023438h32v32h-32zm0 0"/><path d="m408.011719 408.023438h32v32h-32zm0 0"/></g><path d="m40.011719 272.023438v168h184c-101.703125 0-184-75.140626-184-168zm0 0" fill="#9bc9ff"/><path d="m72.011719 344.023438v64h64v-64zm0 0" fill="#7ed63e"/><path d="m264.011719 336.023438v120c0 8.839843 7.164062 16 16 16h136c-84 0-152-60.796876-152-136zm0 0" fill="#cd2a00"/><path d="m296.011719 408.023438h32v32h-32zm0 0" fill="#ffcd00"/><path d="m184.011719 24.023438c-13.253907 0-24 10.746093-24 24 0 13.257812 10.746093 24 24 24 13.253906 0 24-10.742188 24-24 0-13.253907-10.746094-24-24-24zm0 32c-4.417969 0-8-3.582032-8-8 0-4.417969 3.582031-8 8-8s8 3.582031 8 8c0 4.417968-3.582031 8-8 8zm0 0"/><path d="m64.011719 224.023438h80v-60.6875l25.65625-25.65625-11.3125-11.3125-17.65625 17.65625h-76.6875zm16-64h44.6875l-20.6875 20.691406-10.34375-10.347656-11.3125 11.3125 21.65625 21.65625 24-24v28.6875h-48zm0 0"/><path d="m140.699219 240.023438h-76.6875v80h80v-60.6875l25.65625-25.65625-11.3125-11.3125zm-12.6875 64h-48v-48h44.6875l-20.6875 20.691406-10.34375-10.347656-11.3125 11.3125 21.65625 21.65625 24-24zm0 0"/><path d="m158.355469 318.367188-17.65625 17.65625h-76.6875v80h80v-60.6875l25.65625-25.65625zm-30.34375 81.65625h-48v-48h44.6875l-20.6875 20.691406-10.34375-10.347656-11.3125 11.3125 21.65625 21.65625 24-24zm0 0"/><path d="m176.011719 160.023438h64v16h-64zm0 0"/><path d="m176.011719 192.023438h64v16h-64zm0 0"/><path d="m176.011719 256.023438h64v16h-64zm0 0"/><path d="m176.011719 288.023438h64v16h-64zm0 0"/><path d="m176.011719 352.023438h64v16h-64zm0 0"/><path d="m176.011719 384.023438h64v16h-64zm0 0"/><path d="m456.011719 176.023438h-88v-104c0-13.253907-10.746094-24-24-24h-72c0-8.835938-7.164063-16-16-16h-27.4375c-3.226563-.171876-5.988281-2.367188-6.890625-5.46875-5.683594-15.925782-20.765625-26.554688-37.671875-26.554688s-31.988281 10.628906-37.671875 26.554688c-.898438 3.101562-3.660156 5.296874-6.886719 5.46875h-27.441406c-8.835938 0-16 7.164062-16 16h-72c-13.253907 0-24.0000002 10.746093-24.0000002 24v384c0 13.257812 10.7460932 24 24.0000002 24h432c13.253906 0 24-10.742188 24-24v-256c0-13.253907-10.746094-24-24-24zm-112-112c4.417969 0 8 3.582031 8 8v104h-16v-96h-64v-16zm-232-16h27.441406c10.003906-.121094 18.824219-6.582032 21.953125-16.085938 3.40625-9.5625 12.457031-15.945312 22.605469-15.945312 10.148437 0 19.203125 6.382812 22.609375 15.945312 3.128906 9.503906 11.949218 15.964844 21.953125 16.085938h27.4375v48h-144zm144 64c8.835937 0 16-7.160157 16-16h48v80h-40c-13.253907 0-24 10.746093-24 24v232h-208v-336h48c0 8.839843 7.164062 16 16 16zm-240 344v-384c0-4.417969 3.582031-8 8-8h72v16h-64v368h224v8c.027343 2.734374.523437 5.441406 1.472656 8h-233.472656c-4.417969 0-8-3.582032-8-8zm448 0c0 4.417968-3.582031 8-8 8h-176c-4.417969 0-8-3.582032-8-8v-256c0-4.417969 3.582031-8 8-8h176c4.417969 0 8 3.582031 8 8zm0 0"/><path d="m288.011719 272.023438h160v-64h-160zm16-48h128v32h-128zm0 0"/><path d="m288.011719 336.023438h48v-48h-48zm16-32h16v16h-16zm0 0"/><path d="m344.011719 336.023438h48v-48h-48zm16-32h16v16h-16zm0 0"/><path d="m400.011719 336.023438h48v-48h-48zm16-32h16v16h-16zm0 0"/><path d="m288.011719 392.023438h48v-48h-48zm16-32h16v16h-16zm0 0"/><path d="m344.011719 392.023438h48v-48h-48zm16-32h16v16h-16zm0 0"/><path d="m400.011719 392.023438h48v-48h-48zm16-32h16v16h-16zm0 0"/><path d="m288.011719 448.023438h48v-48h-48zm16-32h16v16h-16zm0 0"/><path d="m344.011719 448.023438h48v-48h-48zm16-32h16v16h-16zm0 0"/><path d="m400.011719 448.023438h48v-48h-48zm16-32h16v16h-16zm0 0"/></svg>