<svg height="480pt" viewBox="0 0 480.35514 480" width="480pt" xmlns="http://www.w3.org/2000/svg"><path d="m285.519531 408.175781h-277.519531v32c.023438 17.664063 14.335938 31.980469 32 32h336c-1.097656.03125-2.191406-.023437-3.28125-.160156-39.449219-1.257813-74.082031-26.609375-87.199219-63.839844zm0 0" fill="#c6c5ca"/><path d="m377.519531 472.175781c.242188.015625.488281-.011719.71875-.078125-.714843.066406-1.4375.09375-2.160156.078125zm0 0" fill="#e0e0e2"/><path d="m408 40.175781c-.003906-17.476562 14.019531-31.722656 31.496094-32h-351.496094c-17.671875 0-32 14.328125-32 32v368h229.519531c-3.675781-10.265625-5.542969-21.09375-5.519531-32 0-53.015625 42.980469-96 96-96 10.90625-.019531 21.730469 1.847657 32 5.523438zm-320 16c0-8.835937 7.164062-16 16-16-8.835938 0-16 7.164063-16 16zm88 0" fill="#e0e0e2"/><path d="m440 8.175781c-.167969 0-.335938 0-.503906 0h.503906c-17.65625.046875-31.957031 14.347657-32 32v32h64v-32c0-17.671875-14.328125-32-32-32zm0 0" fill="#acabb1"/><path d="m408 40.175781c.042969-17.652343 14.34375-31.953125 32-32h-.503906c-17.476563.277344-31.5 14.523438-31.496094 32zm0 0" fill="#e0e0e2"/><path d="m280 376.175781c-.023438 10.90625 1.84375 21.734375 5.519531 32 13.117188 37.230469 47.75 62.582031 87.199219 63.839844 1.089844.136719 2.183594.191406 3.28125.160156h.078125c.722656.015625 1.445313-.011719 2.160156-.078125 37.339844-.855468 70.796875-23.289062 85.761719-57.511718 14.964844-34.21875 8.722656-74.011719-16-102.007813-10.832031-12.214844-24.597656-21.464844-40-26.878906-10.269531-3.675781-21.09375-5.542969-32-5.523438-53.019531 0-96 42.984375-96 96zm160 0h-64zm0 0" fill="#71d9b3"/><g fill="#231f20"><path d="m472 80.175781c4.417969 0 8-3.578125 8-8v-32c-.027344-22.078125-17.917969-39.972656-40-40-.160156 0-.3125 0-.472656 0h-351.527344c-22.082031.027344-39.972656 17.921875-40 40v360h-40c-4.417969 0-8 3.582031-8 8v32c.0273438 22.082031 17.917969 39.976563 40 40l338.847656-.101562c49.121094-1.050781 90.769532-36.417969 99.757813-84.722657 8.988281-48.304687-17.148438-96.285156-62.605469-114.933593v-200.242188zm-8-40v24h-48v-24c.035156-13.238281 10.757812-23.964843 24-24h.105469c13.210937.058594 23.894531 10.789063 23.894531 24zm-400 0c0-13.253906 10.746094-24 24-24h320v.050781c-1.152344 1.554688-2.1875 3.191407-3.105469 4.894532-.246093.457031-.453125.929687-.6875 1.390625-.644531 1.304687-1.222656 2.640625-1.726562 4-.207031.585937-.410157 1.167969-.601563 1.761719-.421875 1.378906-.769531 2.78125-1.046875 4.199218-.113281.5625-.246093 1.105469-.335937 1.671875-.320313 1.996094-.488282 4.011719-.496094 6.03125v234.800781c-.640625-.160156-1.3125-.207031-1.960938-.351562-2.664062-.574219-5.332031-1.046875-8-1.414062-1.039062-.144532-2.078124-.296876-3.128906-.410157-3.621094-.394531-7.265625-.601562-10.910156-.625-29.523438-.152343-57.707031 12.3125-77.453125 34.257813-19.75 21.949218-29.175781 51.289062-25.914063 80.632812.101563 1.03125.253907 2.0625.390626 3.09375.375 2.746094.855468 5.449219 1.441406 8.136719.136718.625.183594 1.265625.335937 1.878906h-210.800781zm-24 424c-13.253906 0-24-10.742187-24-24v-24h264c.136719.328125.304688.632813.441406.953125.574219 1.335938 1.207032 2.640625 1.832032 3.945313.527343 1.09375 1.03125 2.191406 1.597656 3.261719.671875 1.289062 1.410156 2.539062 2.136718 3.792968.601563 1.023438 1.175782 2.074219 1.808594 3.074219.800782 1.238281 1.597656 2.398437 2.398438 3.621094.664062.96875 1.304687 1.953125 2.007812 2.898437.882813 1.191406 1.824219 2.328125 2.753906 3.480469.710938.878906 1.398438 1.789063 2.136719 2.644531 1.007813 1.160156 2.078125 2.273438 3.132813 3.394532.738281.800781 1.441406 1.597656 2.203125 2.335937 1.167969 1.160156 2.398437 2.253906 3.613281 3.359375.714844.648438 1.394531 1.328125 2.121094 1.953125 1.441406 1.230469 2.9375 2.398437 4.441406 3.535156.566406.441407 1.09375.902344 1.671875 1.328125 2.09375 1.539063 4.246094 3.007813 6.457031 4.398438zm424-88c.121094 30.667969-15.820312 59.15625-42.015625 75.097657-13.453125 8.199218-28.855469 12.65625-44.609375 12.902343-.457031.03125-.917969.03125-1.375 0-.699219.035157-1.402344.011719-2.097656-.070312-.308594-.046875-.621094-.074219-.933594-.078125-4.445312-.140625-8.871094-.625-13.242188-1.449219-28.425781-5.441406-52.398437-24.4375-64.199218-50.863281-.894532-2.027344-1.714844-4.09375-2.457032-6.191406-3.378906-9.414063-5.097656-19.34375-5.070312-29.347657.058594-48.574219 39.421875-87.941406 88-88 2.6875 0 5.351562.136719 8 .378907 7.292969.640624 14.472656 2.21875 21.359375 4.695312 35.21875 12.328125 58.753906 45.617188 58.640625 82.925781zm0 0"/><path d="m360 192.175781h-256c-4.417969 0-8 3.582031-8 8 0 4.421875 3.582031 8 8 8h256c4.417969 0 8-3.578125 8-8 0-4.417969-3.582031-8-8-8zm0 0"/><path d="m360 240.175781h-256c-4.417969 0-8 3.582031-8 8 0 4.421875 3.582031 8 8 8h256c4.417969 0 8-3.578125 8-8 0-4.417969-3.582031-8-8-8zm0 0"/><path d="m264 288.175781h-160c-4.417969 0-8 3.582031-8 8 0 4.421875 3.582031 8 8 8h160c4.417969 0 8-3.578125 8-8 0-4.417969-3.582031-8-8-8zm0 0"/><path d="m248 336.175781h-144c-4.417969 0-8 3.582031-8 8 0 4.421875 3.582031 8 8 8h144c4.417969 0 8-3.578125 8-8 0-4.417969-3.582031-8-8-8zm0 0"/><path d="m360 144.175781h-256c-4.417969 0-8 3.582031-8 8 0 4.421875 3.582031 8 8 8h256c4.417969 0 8-3.578125 8-8 0-4.417969-3.582031-8-8-8zm0 0"/><path d="m360 96.175781h-224c-4.417969 0-8 3.582031-8 8 0 4.421875 3.582031 8 8 8h224c4.417969 0 8-3.578125 8-8 0-4.417969-3.582031-8-8-8zm0 0"/><path d="m176 64.175781h184c4.417969 0 8-3.578125 8-8 0-4.417969-3.582031-8-8-8h-184c-4.417969 0-8 3.582031-8 8 0 4.421875 3.582031 8 8 8zm0 0"/><path d="m96 56.175781c0-4.417969 3.582031-8 8-8h32c4.417969 0 8-3.578125 8-8 0-4.417969-3.582031-8-8-8h-32c-13.253906 0-24 10.746094-24 24v32c0 4.421875 3.582031 8 8 8s8-3.578125 8-8zm0 0"/><path d="m384 312.175781c0-4.417969-3.582031-8-8-8s-8 3.582031-8 8v56h-56c-4.417969 0-8 3.582031-8 8 0 4.421875 3.582031 8 8 8h56v56c0 4.421875 3.582031 8 8 8s8-3.578125 8-8v-56h56c4.417969 0 8-3.578125 8-8 0-4.417969-3.582031-8-8-8h-56zm0 0"/></g></svg>