<svg height="480pt" viewBox="0 0 480 480" width="480pt" xmlns="http://www.w3.org/2000/svg"><path d="m344 255.890625v16c0 17.671875-14.328125 32-32 32h-144c-17.671875 0-32-14.328125-32-32v-16c-.027344-8.828125-7.175781-15.976563-16-16h-112v200c0 17.671875 14.328125 32 32 32h400c17.671875 0 32-14.328125 32-32v-200h-112c-8.824219.023437-15.972656 7.171875-16 16zm-40 112h-128c-8.835938 0-16-7.164063-16-16 0-8.839844 7.164062-16 16-16h128c8.835938 0 16 7.160156 16 16 0 8.835937-7.164062 16-16 16zm120 72c8.835938 0 16-7.164063 16-16 0 8.835937-7.164062 16-16 16zm0 0" fill="#ffcd00"/><path d="m400.800781 167.890625h-104.800781v88h-112v-88h-104.800781c-4.582031-.015625-8.953125 1.933594-12 5.359375l-59.199219 66.640625h112c8.824219.023437 15.972656 7.171875 16 16v16c0 17.671875 14.328125 32 32 32h144c17.671875 0 32-14.328125 32-32v-16c.027344-8.828125 7.175781-15.976563 16-16h112l-59.199219-66.640625c-3.046875-3.425781-7.417969-5.375-12-5.359375zm0 0" fill="#c6c5ca"/><path d="m304 335.890625h-128c-8.835938 0-16 7.160156-16 16 0 8.835937 7.164062 16 16 16h128c8.835938 0 16-7.164063 16-16 0-8.839844-7.164062-16-16-16zm0 0" fill="#acabb1"/><path d="m296 255.890625v-136h48l-104-112-104 112h48v136zm0 0" fill="#71d9b3"/><g fill="#231f20"><path d="m479.921875 239.472656c-.046875-.789062-.207031-1.566406-.472656-2.3125-.058594-.160156-.082031-.335937-.144531-.488281-.332032-.761719-.777344-1.46875-1.320313-2.09375l-59.199219-66.632813c-4.566406-5.136718-11.113281-8.070312-17.984375-8.054687h-96.800781v-32h40c3.183594 0 6.066406-1.886719 7.339844-4.804687 1.273437-2.917969.691406-6.3125-1.476563-8.644532l-104-112c-1.550781-1.5625-3.660156-2.441406-5.863281-2.441406s-4.3125.878906-5.863281 2.441406l-104 112c-2.167969 2.332032-2.75 5.726563-1.476563 8.644532 1.273438 2.917968 4.15625 4.804687 7.339844 4.804687h40v32h-96.800781c-6.871094-.015625-13.417969 2.914063-17.984375 8.046875l-59.199219 66.640625c-.542969.625-.988281 1.332031-1.320313 2.09375-.0625.152344-.085937.328125-.144531.488281-.265625.746094-.425781 1.523438-.472656 2.3125 0 .144532-.078125.273438-.078125.417969v200c.0273438 22.078125 17.917969 39.972656 40 40h400c22.082031-.027344 39.972656-17.921875 40-40v-200c0-.144531-.070312-.273437-.078125-.417969zm-325.578125-127.582031 85.65625-92.242187 85.65625 92.242187h-29.65625c-4.417969 0-8 3.582031-8 8v128h-96v-128c0-4.417969-3.582031-8-8-8zm-81.160156 66.664063c1.53125-1.710938 3.722656-2.679688 6.015625-2.664063h96.800781v80c0 4.417969 3.582031 8 8 8h112c4.417969 0 8-3.582031 8-8v-80h96.800781c2.296875-.019531 4.492188.957031 6.023438 2.671875l47.367187 53.328125h-94.191406c-13.253906 0-24 10.742187-24 24v16c0 13.253906-10.746094 24-24 24h-144c-13.253906 0-24-10.746094-24-24v-16c0-13.257813-10.746094-24-24-24h-94.191406zm390.816406 261.335937c0 13.253906-10.746094 24-24 24h-400c-13.253906 0-24-10.746094-24-24v-192h104c4.417969 0 8 3.582031 8 8v16c.027344 22.078125 17.917969 39.972656 40 40h144c22.082031-.027344 39.972656-17.921875 40-40v-16c0-4.417969 3.582031-8 8-8h104zm0 0"/><path d="m304 327.890625h-128c-13.253906 0-24 10.742187-24 24 0 13.253906 10.746094 24 24 24h128c13.253906 0 24-10.746094 24-24 0-13.257813-10.746094-24-24-24zm0 32h-128c-4.417969 0-8-3.582031-8-8s3.582031-8 8-8h128c4.417969 0 8 3.582031 8 8s-3.582031 8-8 8zm0 0"/><path d="m392 447.890625h32c13.253906 0 24-10.746094 24-24v-32c0-4.417969-3.582031-8-8-8s-8 3.582031-8 8v32c0 4.417969-3.582031 8-8 8h-32c-4.417969 0-8 3.582031-8 8s3.582031 8 8 8zm0 0"/></g></svg>